<?xml version="1.0" encoding="UTF-8"?><svg xmlns="http://www.w3.org/2000/svg" xmlns:xlink="http://www.w3.org/1999/xlink" width="375" zoomAndPan="magnify" viewBox="0 0 375 374.999991" height="374.999991" preserveAspectRatio="xMidYMid meet" version="1.0"><defs><clipPath id="clip-0"><path d="M 189 109 L 314.121094 109 L 314.121094 283.691406 L 189 283.691406 Z M 189 109 " clip-rule="nonzero"/></clipPath><clipPath id="clip-1"><path d="M 189 72 L 286 72 L 286 283.691406 L 189 283.691406 Z M 189 72 " clip-rule="nonzero"/></clipPath><clipPath id="clip-2"><path d="M 189 89 L 300 89 L 300 283.691406 L 189 283.691406 Z M 189 89 " clip-rule="nonzero"/></clipPath><clipPath id="clip-3"><path d="M 60.621094 109 L 185 109 L 185 283.691406 L 60.621094 283.691406 Z M 60.621094 109 " clip-rule="nonzero"/></clipPath><clipPath id="clip-4"><path d="M 88 72 L 185 72 L 185 283.691406 L 88 283.691406 Z M 88 72 " clip-rule="nonzero"/></clipPath><clipPath id="clip-5"><path d="M 74 89 L 185 89 L 185 283.691406 L 74 283.691406 Z M 74 89 " clip-rule="nonzero"/></clipPath></defs><path fill="rgb(69.799805%, 50.588989%, 36.859131%)" d="M 187.351562 374.699219 C 137.332031 374.699219 90.230469 355.230469 54.886719 319.8125 C 19.46875 284.46875 0 237.371094 0 187.351562 C 0 137.332031 19.46875 90.230469 54.886719 54.886719 C 90.230469 19.46875 137.332031 0 187.351562 0 C 237.371094 0 284.46875 19.46875 319.8125 54.886719 C 355.230469 90.304688 374.699219 137.332031 374.699219 187.351562 C 374.699219 237.371094 355.230469 284.46875 319.8125 319.8125 C 284.46875 355.230469 237.371094 374.699219 187.351562 374.699219 Z M 187.351562 11.230469 C 140.324219 11.230469 96.070312 29.578125 62.824219 62.824219 C 29.578125 96.070312 11.230469 140.324219 11.230469 187.351562 C 11.230469 234.375 29.578125 278.628906 62.824219 311.875 C 96.070312 345.121094 140.324219 363.46875 187.351562 363.46875 C 234.375 363.46875 278.628906 345.121094 311.875 311.875 C 345.121094 278.628906 363.46875 234.375 363.46875 187.351562 C 363.46875 140.324219 345.121094 96.070312 311.875 62.824219 C 278.628906 29.578125 234.375 11.230469 187.351562 11.230469 Z M 187.351562 11.230469 " fill-opacity="1" fill-rule="nonzero"/><g clip-path="url(#clip-0)"><path fill="rgb(69.799805%, 50.588989%, 36.859131%)" d="M 299.792969 109.328125 C 299.792969 112.984375 299.792969 116.648438 299.792969 120.308594 C 301.027344 120.6875 302.25 121.085938 303.46875 121.488281 C 303.46875 170.558594 303.46875 219.625 303.46875 268.695312 C 284.214844 262.25 264.042969 259.523438 244.011719 260.511719 C 225.621094 264.304688 207.242188 272.089844 189.917969 283.664062 C 229.683594 267.179688 274.359375 267.179688 314.121094 283.664062 C 314.121094 227.269531 314.121094 170.882812 314.121094 114.492188 C 309.414062 112.535156 304.632812 110.816406 299.792969 109.328125 " fill-opacity="1" fill-rule="nonzero"/></g><g clip-path="url(#clip-1)"><path fill="rgb(69.799805%, 50.588989%, 36.859131%)" d="M 198.148438 265.152344 C 223.9375 242.875 251.839844 230.859375 277.628906 230.925781 C 277.628906 181.863281 277.628906 132.792969 277.628906 83.726562 C 251.839844 83.660156 223.9375 95.671875 198.148438 117.953125 C 198.148438 167.019531 198.148438 216.082031 198.148438 265.152344 Z M 285.859375 242.351562 C 255.144531 239.097656 220.636719 253.957031 189.917969 283.664062 C 189.917969 227.269531 189.917969 170.882812 189.917969 114.492188 C 220.636719 84.785156 255.144531 69.917969 285.859375 73.183594 C 285.859375 129.570312 285.859375 185.960938 285.859375 242.351562 " fill-opacity="1" fill-rule="nonzero"/></g><g clip-path="url(#clip-2)"><path fill="rgb(69.799805%, 50.588989%, 36.859131%)" d="M 285.859375 89.753906 C 285.859375 93.417969 285.859375 97.078125 285.859375 100.734375 C 287.367188 100.945312 288.875 101.1875 290.371094 101.453125 C 290.371094 150.515625 290.371094 199.589844 290.371094 248.65625 C 272.851562 245.519531 254.472656 246.496094 236.253906 251.367188 C 220.5 258.417969 204.765625 269.304688 189.917969 283.664062 C 225.097656 260.160156 264.621094 252.277344 299.792969 261.742188 C 299.792969 205.351562 299.792969 148.960938 299.792969 92.574219 C 295.21875 91.335938 290.5625 90.402344 285.859375 89.753906 " fill-opacity="1" fill-rule="nonzero"/></g><g clip-path="url(#clip-3)"><path fill="rgb(69.799805%, 50.588989%, 36.859131%)" d="M 74.953125 109.328125 C 74.953125 112.984375 74.953125 116.648438 74.953125 120.308594 C 73.722656 120.6875 72.5 121.085938 71.277344 121.488281 C 71.277344 170.558594 71.277344 219.625 71.277344 268.695312 C 90.539062 262.25 110.707031 259.523438 130.738281 260.511719 C 149.125 264.304688 167.503906 272.089844 184.828125 283.664062 C 145.0625 267.179688 100.386719 267.179688 60.621094 283.664062 C 60.621094 227.269531 60.621094 170.882812 60.621094 114.492188 C 65.339844 112.535156 70.121094 110.816406 74.953125 109.328125 " fill-opacity="1" fill-rule="nonzero"/></g><g clip-path="url(#clip-4)"><path fill="rgb(69.799805%, 50.588989%, 36.859131%)" d="M 176.597656 117.953125 C 150.8125 95.671875 122.902344 83.660156 97.121094 83.726562 C 97.121094 132.792969 97.121094 181.863281 97.121094 230.925781 C 122.902344 230.859375 150.8125 242.875 176.597656 265.152344 C 176.597656 216.082031 176.597656 167.019531 176.597656 117.953125 Z M 88.894531 73.183594 C 119.605469 69.917969 154.113281 84.785156 184.828125 114.492188 C 184.828125 170.882812 184.828125 227.269531 184.828125 283.664062 C 154.113281 253.957031 119.605469 239.097656 88.894531 242.351562 C 88.894531 185.960938 88.894531 129.570312 88.894531 73.183594 " fill-opacity="1" fill-rule="nonzero"/></g><g clip-path="url(#clip-5)"><path fill="rgb(69.799805%, 50.588989%, 36.859131%)" d="M 88.894531 89.753906 C 88.894531 93.417969 88.894531 97.078125 88.894531 100.734375 C 87.378906 100.945312 85.871094 101.1875 84.375 101.453125 C 84.375 150.515625 84.375 199.589844 84.375 248.65625 C 101.894531 245.519531 120.277344 246.496094 138.492188 251.367188 C 154.25 258.417969 169.984375 269.304688 184.828125 283.664062 C 149.652344 260.160156 110.128906 252.277344 74.953125 261.742188 C 74.953125 205.351562 74.953125 148.960938 74.953125 92.574219 C 79.53125 91.335938 84.183594 90.402344 88.894531 89.753906 " fill-opacity="1" fill-rule="nonzero"/></g></svg>